# Blender v3.0.1 OBJ File: ''
# www.blender.org
mtllib bamboo.mtl
o WhatsApp_Image_2024-10-09_at_1.08.50_AM_(1)
v 0.000000 0.032053 0.481713
v -0.000000 0.107149 -0.509187
v -0.000000 -0.200561 -0.468892
v 0.000000 -0.096159 0.498197
v 0.000000 0.032053 0.481713
v -0.000000 0.107149 -0.509187
v -0.000000 -0.200561 -0.468892
v 0.000000 -0.096159 0.498197
vt 0.180643 0.403841
vt 0.191210 0.532053
vt 0.826402 0.607149
vt 0.800572 0.299439
vt 0.180643 0.403841
vt 0.800572 0.299439
vt 0.826402 0.607149
vt 0.191210 0.532053
vn -1.0000 0.0000 0.0000
vn 1.0000 -0.0000 -0.0000
vn 0.0000 0.0000 1.0000
g WhatsApp_Image_2024-10-09_at_1.08.50_AM_(1)_WhatsApp_Image_2024-10-09_at_1.08.50_AM_(1)_WhatsApp_Image_2024-10-09_at_1.08.50_AM_(1)
usemtl WhatsApp_Image_2024-10-09_at_1.08.50_AM_(1)
s off
f 4/1/1 1/2/1 2/3/1 3/4/1
f 8/5/2 7/6/2 6/7/2 5/8/2
f 4/1/3 3/4/3 7/6/3 8/5/3
f 2/3/3 1/2/3 5/8/3 6/7/3
f 1/2/3 4/1/3 8/5/3 5/8/3
f 3/4/3 2/3/3 6/7/3 7/6/3
