# Blender v3.0.1 OBJ File: ''
# www.blender.org
mtllib chawl.mtl
o WhatsApp_Image_2024-10-09_at_1.08.50_AM
v -0.000000 0.253234 -0.971804
v 0.000000 0.400206 0.866350
v -0.000000 0.396543 -0.890161
v 0.000000 -0.411196 0.943278
v 0.000000 0.268331 0.946941
v -0.000000 -0.409364 -0.965257
v 0.133122 0.253234 -0.971804
v 0.133122 -0.409364 -0.965257
v 0.133122 0.396543 -0.890161
v 0.133122 0.400206 0.866350
v 0.133122 -0.411196 0.943278
v 0.133122 0.268331 0.946941
vt 0.035026 0.088804
vt 0.033220 0.768331
vt 0.072946 0.900206
vt 0.938791 0.896543
vt 0.979036 0.753234
vt 0.975809 0.090636
vt 0.035026 0.088804
vt 0.975809 0.090636
vt 0.979036 0.753234
vt 0.938791 0.896543
vt 0.072946 0.900206
vt 0.033220 0.768331
vn -1.0000 0.0000 0.0000
vn 1.0000 -0.0000 -0.0000
vn 0.0000 -0.0099 -1.0000
vn 0.0000 -1.0000 -0.0010
vn 0.0000 -0.0054 1.0000
vn 0.0000 0.4950 -0.8689
vn 0.0000 0.5215 0.8533
vn 0.0000 1.0000 -0.0021
usemtl WhatsApp_Image_2024-10-09_at_1.08.50_AM
s off
f 4/1/1 5/2/1 2/3/1 3/4/1 1/5/1 6/6/1
f 11/7/2 8/8/2 7/9/2 9/10/2 10/11/2 12/12/2
f 6/6/3 1/5/3 7/9/3 8/8/3
f 4/1/4 6/6/4 8/8/4 11/7/4
f 5/2/5 4/1/5 11/7/5 12/12/5
f 1/5/6 3/4/6 9/10/6 7/9/6
f 2/3/7 5/2/7 12/12/7 10/11/7
f 3/4/8 2/3/8 10/11/8 9/10/8
