# Blender v3.0.1 OBJ File: ''
# www.blender.org
mtllib newchail.mtl
o WhatsApp_Image_2024-10-09_at_1.08.50_AM
v -0.000000 1.418109 -5.442104
v 0.000000 2.241155 4.851562
v -0.000000 2.220642 -4.984904
v 0.000000 -2.302697 5.282357
v 0.000000 1.502651 5.302871
v -0.000000 -2.292440 -5.405441
v 0.745483 1.418109 -5.442104
v 0.745483 -2.292440 -5.405441
v 0.745483 2.220642 -4.984904
v 0.745483 2.241155 4.851562
v 0.745483 -2.302697 5.282357
v 0.745483 1.502651 5.302871
vt 0.035026 0.088804
vt 0.033220 0.768331
vt 0.072946 0.900206
vt 0.938791 0.896543
vt 0.979036 0.753234
vt 0.975809 0.090636
vt 0.035026 0.088804
vt 0.975809 0.090636
vt 0.979036 0.753234
vt 0.938791 0.896543
vt 0.072946 0.900206
vt 0.033220 0.768331
vn -1.0000 0.0000 0.0000
vn 1.0000 -0.0000 -0.0000
vn 0.0000 -0.0099 -1.0000
vn 0.0000 -1.0000 -0.0010
vn 0.0000 -0.0054 1.0000
vn 0.0000 0.4950 -0.8689
vn 0.0000 0.5215 0.8533
vn 0.0000 1.0000 -0.0021
g WhatsApp_Image_2024-10-09_at_1.08.50_AM_WhatsApp_Image_2024-10-09_at_1.08.50_AM_WhatsApp_Image_2024-10-09_at_1.08.50_AM
usemtl WhatsApp_Image_2024-10-09_at_1.08.50_AM
s off
f 4/1/1 5/2/1 2/3/1 3/4/1 1/5/1 6/6/1
f 11/7/2 8/8/2 7/9/2 9/10/2 10/11/2 12/12/2
f 6/6/3 1/5/3 7/9/3 8/8/3
f 4/1/4 6/6/4 8/8/4 11/7/4
f 5/2/5 4/1/5 11/7/5 12/12/5
f 1/5/6 3/4/6 9/10/6 7/9/6
f 2/3/7 5/2/7 12/12/7 10/11/7
f 3/4/8 2/3/8 10/11/8 9/10/8
